<svg xmlns="http://www.w3.org/2000/svg" xmlns:xlink="http://www.w3.org/1999/xlink" viewBox="0 0 167.96 164.14"><defs><style>.cls-1{fill:url(#linear-gradient);}.cls-2{fill:none;stroke-width:5.53px;stroke:url(#linear-gradient);}.cls-2,.cls-3,.cls-4{stroke-miterlimit:10;}.cls-3{fill:#fff;stroke:#000;stroke-width:2px;}.cls-4{fill:#008351;stroke:#008351;stroke-width:5.53px;}</style><linearGradient id="linear-gradient" x1="-1.76" y1="187.49" x2="163.08" y2="49.17" gradientUnits="userSpaceOnUse"><stop offset="0.14" stop-color="#008351"/><stop offset="0.28" stop-color="#005333"/><stop offset="0.49" stop-color="#00170e"/><stop offset="0.58"/><stop offset="0.68" stop-color="#000302"/><stop offset="0.75" stop-color="#000c08"/><stop offset="0.81" stop-color="#001c12"/><stop offset="0.87" stop-color="#003320"/><stop offset="0.93" stop-color="#005032"/><stop offset="0.98" stop-color="#007448"/><stop offset="1" stop-color="#008351"/></linearGradient></defs><title>favi2</title><g id="Layer_2" data-name="Layer 2"><g id="Docs"><path d="M60.5,41.92l-29,151.65H3.35l29-151.65Z" transform="translate(0 -33.56)"/><path d="M135.42,189.3a83.43,83.43,0,0,1-29.93,5.63c-18,0-29-5.85-36.9-15.75-7.43-9.23-11.25-24.08-11.25-37.8,0-31.28,10.35-60.53,28.58-79.88A67.69,67.69,0,0,1,135.2,40.57c12.6,0,19.58,2.25,24.08,4l-9,24.75a45.25,45.25,0,0,0-16.43-3.15c-10.35,0-18.23,3.38-25.2,10.13C96.27,88.72,87,112.8,87,140.93c0,18.9,6.08,29.7,18.23,29.7a29.76,29.76,0,0,0,8.1-.9l7-37.58H106.62l4.73-22.73H150.5Z" transform="translate(0 -33.56)"/><path class="cls-1" d="M60.5,41.92l-29,151.65H3.35l29-151.65Z" transform="translate(0 -33.56)"/><path class="cls-1" d="M135.42,189.3a83.43,83.43,0,0,1-29.93,5.63c-18,0-29-5.85-36.9-15.75-7.43-9.23-11.25-24.08-11.25-37.8,0-31.28,10.35-60.53,28.58-79.88A67.69,67.69,0,0,1,135.2,40.57c12.6,0,19.58,2.25,24.08,4l-9,24.75a45.25,45.25,0,0,0-16.43-3.15c-10.35,0-18.23,3.38-25.2,10.13C96.27,88.72,87,112.8,87,140.93c0,18.9,6.08,29.7,18.23,29.7a29.76,29.76,0,0,0,8.1-.9l7-37.58H106.62l4.73-22.73H150.5Z" transform="translate(0 -33.56)"/><path class="cls-2" d="M60.5,41.92l-29,151.65H3.35l29-151.65Z" transform="translate(0 -33.56)"/><path class="cls-2" d="M135.42,189.3a83.43,83.43,0,0,1-29.93,5.63c-18,0-29-5.85-36.9-15.75-7.43-9.23-11.25-24.08-11.25-37.8,0-31.28,10.35-60.53,28.58-79.88A67.69,67.69,0,0,1,135.2,40.57c12.6,0,19.58,2.25,24.08,4l-9,24.75a45.25,45.25,0,0,0-16.43-3.15c-10.35,0-18.23,3.38-25.2,10.13C96.27,88.72,87,112.8,87,140.93c0,18.9,6.08,29.7,18.23,29.7a29.76,29.76,0,0,0,8.1-.9l7-37.58H106.62l4.73-22.73H150.5Z" transform="translate(0 -33.56)"/><path class="cls-3" d="M65.67,37.67l-29,151.65H8.51l29-151.65Z" transform="translate(0 -33.56)"/><path class="cls-4" d="M140.59,185.05a83.43,83.43,0,0,1-29.93,5.63c-18,0-29-5.85-36.9-15.75-7.42-9.23-11.25-24.08-11.25-37.8,0-31.28,10.35-60.53,28.58-79.88a67.69,67.69,0,0,1,49.28-20.93c12.6,0,19.58,2.25,24.08,4l-9,24.75A45.25,45.25,0,0,0,139,62c-10.35,0-18.23,3.38-25.2,10.13-12.38,12.38-21.6,36.45-21.6,64.58,0,18.9,6.08,29.7,18.23,29.7a29.76,29.76,0,0,0,8.1-.9l7-37.58H111.79l4.73-22.73h39.15Z" transform="translate(0 -33.56)"/></g></g></svg>