<svg xmlns="http://www.w3.org/2000/svg" viewBox="0 0 164.03 161.35"><defs><style>.cls-1{fill:#fff;}.cls-2,.cls-3,.cls-5{fill:none;stroke-miterlimit:10;}.cls-2{stroke:#fff;stroke-width:7px;}.cls-3{stroke:#000;}.cls-3,.cls-5{stroke-width:5.53px;}.cls-4{fill:#008351;}.cls-5{stroke:#008351;}</style></defs><title>favicon_4</title><g id="Layer_2" data-name="Layer 2"><g id="Layer_1-2" data-name="Layer 1"><path d="M64.15,40.17l-29,151.65H7L36,40.17Z" transform="translate(-2.77 -35.32)"/><path class="cls-1" d="M64.15,40.17l-29,151.65H7L36,40.17Z" transform="translate(-2.77 -35.32)"/><path class="cls-2" d="M64.15,40.17l-29,151.65H7L36,40.17Z" transform="translate(-2.77 -35.32)"/><path d="M138.5,187.55a83.42,83.42,0,0,1-29.93,5.63c-18,0-29-5.85-36.9-15.75-7.42-9.23-11.25-24.08-11.25-37.8,0-31.28,10.35-60.53,28.58-79.88a67.69,67.69,0,0,1,49.28-20.93c12.6,0,19.58,2.25,24.08,4l-9,24.75a45.25,45.25,0,0,0-16.43-3.15c-10.35,0-18.23,3.38-25.2,10.13C99.35,87,90.13,111,90.13,139.17c0,18.9,6.08,29.7,18.23,29.7a29.76,29.76,0,0,0,8.1-.9l7-37.58H109.7l4.73-22.73h39.15Z" transform="translate(-2.77 -35.32)"/><path class="cls-1" d="M138.5,187.55a83.42,83.42,0,0,1-29.93,5.63c-18,0-29-5.85-36.9-15.75-7.42-9.23-11.25-24.08-11.25-37.8,0-31.28,10.35-60.53,28.58-79.88a67.69,67.69,0,0,1,49.28-20.93c12.6,0,19.58,2.25,24.08,4l-9,24.75a45.25,45.25,0,0,0-16.43-3.15c-10.35,0-18.23,3.38-25.2,10.13C99.35,87,90.13,111,90.13,139.17c0,18.9,6.08,29.7,18.23,29.7a29.76,29.76,0,0,0,8.1-.9l7-37.58H109.7l4.73-22.73h39.15Z" transform="translate(-2.77 -35.32)"/><path class="cls-2" d="M138.5,187.55a83.42,83.42,0,0,1-29.93,5.63c-18,0-29-5.85-36.9-15.75-7.42-9.23-11.25-24.08-11.25-37.8,0-31.28,10.35-60.53,28.58-79.88a67.69,67.69,0,0,1,49.28-20.93c12.6,0,19.58,2.25,24.08,4l-9,24.75a45.25,45.25,0,0,0-16.43-3.15c-10.35,0-18.23,3.38-25.2,10.13C99.35,87,90.13,111,90.13,139.17c0,18.9,6.08,29.7,18.23,29.7a29.76,29.76,0,0,0,8.1-.9l7-37.58H109.7l4.73-22.73h39.15Z" transform="translate(-2.77 -35.32)"/><path d="M64.15,40.17l-29,151.65H7L36,40.17Z" transform="translate(-2.77 -35.32)"/><path d="M64.15,40.17l-29,151.65H7L36,40.17Z" transform="translate(-2.77 -35.32)"/><path class="cls-3" d="M64.15,40.17l-29,151.65H7L36,40.17Z" transform="translate(-2.77 -35.32)"/><path d="M138.5,187.55a83.42,83.42,0,0,1-29.93,5.63c-18,0-29-5.85-36.9-15.75-7.42-9.23-11.25-24.08-11.25-37.8,0-31.28,10.35-60.53,28.58-79.88a67.69,67.69,0,0,1,49.28-20.93c12.6,0,19.58,2.25,24.08,4l-9,24.75a45.25,45.25,0,0,0-16.43-3.15c-10.35,0-18.23,3.38-25.2,10.13C99.35,87,90.13,111,90.13,139.17c0,18.9,6.08,29.7,18.23,29.7a29.76,29.76,0,0,0,8.1-.9l7-37.58H109.7l4.73-22.73h39.15Z" transform="translate(-2.77 -35.32)"/><path class="cls-4" d="M138.5,187.55a83.42,83.42,0,0,1-29.93,5.63c-18,0-29-5.85-36.9-15.75-7.42-9.23-11.25-24.08-11.25-37.8,0-31.28,10.35-60.53,28.58-79.88a67.69,67.69,0,0,1,49.28-20.93c12.6,0,19.58,2.25,24.08,4l-9,24.75a45.25,45.25,0,0,0-16.43-3.15c-10.35,0-18.23,3.38-25.2,10.13C99.35,87,90.13,111,90.13,139.17c0,18.9,6.08,29.7,18.23,29.7a29.76,29.76,0,0,0,8.1-.9l7-37.58H109.7l4.73-22.73h39.15Z" transform="translate(-2.77 -35.32)"/><path class="cls-5" d="M138.5,187.55a83.42,83.42,0,0,1-29.93,5.63c-18,0-29-5.85-36.9-15.75-7.42-9.23-11.25-24.08-11.25-37.8,0-31.28,10.35-60.53,28.58-79.88a67.69,67.69,0,0,1,49.28-20.93c12.6,0,19.58,2.25,24.08,4l-9,24.75a45.25,45.25,0,0,0-16.43-3.15c-10.35,0-18.23,3.38-25.2,10.13C99.35,87,90.13,111,90.13,139.17c0,18.9,6.08,29.7,18.23,29.7a29.76,29.76,0,0,0,8.1-.9l7-37.58H109.7l4.73-22.73h39.15Z" transform="translate(-2.77 -35.32)"/></g></g></svg>