<svg xmlns="http://www.w3.org/2000/svg" viewBox="0 0 765.53 159.89"><defs><style>.cls-1{fill:#fff;stroke:#000;stroke-width:2px;}.cls-1,.cls-2{stroke-miterlimit:10;}.cls-2{fill:#008351;stroke:#008351;stroke-width:5.53px;}</style></defs><title>docslogo</title><g id="Layer_2" data-name="Layer 2"><g id="Docs"><path class="cls-1" d="M61.3,37.67l-29,151.65H4.15l29-151.65Z" transform="translate(-2.94 -33.56)"/><path class="cls-1" d="M81.1,39.7A195.39,195.39,0,0,1,111.48,37c10.13,0,25.43,2,34.65,12.15,6.53,7,9.45,18,9.45,26.1A61.54,61.54,0,0,1,136,120.7c-10.58,9-25.65,13.28-38.25,13.28-2.48,0-5,0-7.2-.23L80,189.33H52.52Zm14,70.88a43.43,43.43,0,0,0,5.4.22c20.48,0,26.78-20.25,26.78-33.53,0-10.12-4.73-17.33-15.75-17.33a27.15,27.15,0,0,0-6.75.67Z" transform="translate(-2.94 -33.56)"/><path class="cls-1" d="M175.37,39.7A195.39,195.39,0,0,1,205.75,37c10.13,0,25.43,2,34.65,12.15,6.53,7,9.45,18,9.45,26.1a61.54,61.54,0,0,1-19.58,45.45C219.7,129.7,204.62,134,192,134c-2.48,0-5,0-7.2-.23l-10.58,55.58H146.8Zm14,70.88a43.43,43.43,0,0,0,5.4.22c20.48,0,26.78-20.25,26.78-33.53,0-10.12-4.73-17.33-15.75-17.33a27.15,27.15,0,0,0-6.75.67Z" transform="translate(-2.94 -33.56)"/><path class="cls-1" d="M347,84c0,32.18-10.58,72.68-30.6,92.7-9.45,9.45-20.25,14.4-33.53,14.4-32.85,0-37.58-32.85-37.58-49.5,0-30.83,10.58-71.33,31.5-91.8,9-8.77,20-14,33.3-14C343,35.87,347,66,347,84ZM296.2,65.35c-14,14.18-21.83,56.48-21.83,79,0,8.55,1.13,22.05,12.83,22.05a12.91,12.91,0,0,0,9.23-4.5C311.5,147,318,98.2,318,81.77c0-9.68-1.35-21.15-11.7-21.15Q300.92,60.62,296.2,65.35Z" transform="translate(-2.94 -33.56)"/><path class="cls-1" d="M342.54,189.33l29-151.65h25.65L408.92,98c3.83,20,6.3,34.43,7.43,47h.45c2-16.65,4.73-42.75,9.45-68l7.43-39.38H458l-29,151.65H404.87l-12.15-56.48a312,312,0,0,1-7.65-50.4h-.45c-2,15.3-5.4,40.28-10.35,66.6l-7.65,40.28Z" transform="translate(-2.94 -33.56)"/><path class="cls-2" d="M532.67,185.05a83.44,83.44,0,0,1-29.93,5.63c-18,0-29-5.85-36.9-15.75-7.42-9.23-11.25-24.08-11.25-37.8,0-31.28,10.35-60.53,28.58-79.88a67.69,67.69,0,0,1,49.28-20.93c12.6,0,19.58,2.25,24.08,4l-9,24.75A45.24,45.24,0,0,0,531.09,62c-10.35,0-18.22,3.38-25.2,10.13-12.38,12.38-21.6,36.45-21.6,64.58,0,18.9,6.08,29.7,18.23,29.7a29.77,29.77,0,0,0,8.1-.9l7-37.58H503.87l4.72-22.73h39.15Z" transform="translate(-2.94 -33.56)"/><path class="cls-2" d="M562.59,189.33l11-58.05-14.85-93.6h30.15l3.15,36.23c1.13,16.43,1.13,26.33,1.13,32.4h.45c3.38-9.45,7-19.35,12.15-30.6l17.55-38h29.47l-51.3,93.83-10.8,57.83Z" transform="translate(-2.94 -33.56)"/><path class="cls-2" d="M721,189.33l8.1-59.4c1.58-12.38,4.5-28.8,8.1-48.6h-.9c-6.52,19.8-13.5,37.35-18,47.7l-24.75,57.83h-20l-2.7-58.5c-.45-10.13-1.12-27.23-.67-47h-.45c-3.83,19.8-7.2,36.23-10.35,48.6l-14,59.4h-24.3L659.57,37.67h29.93l2.7,72c.45,11.25.9,27,.45,38h.45c2.92-11,8.78-26.55,13.28-38l29-72h29.93l-19.8,151.65Z" transform="translate(-2.94 -33.56)"/></g></g></svg>