<svg xmlns="http://www.w3.org/2000/svg" xmlns:xlink="http://www.w3.org/1999/xlink" viewBox="0 0 665.09 651.19"><defs><style>.cls-1{fill:url(#linear-gradient);}.cls-2{fill:#fff;}.cls-3{fill:#014b60;}.cls-4{fill:#a6d0ef;}.cls-5{fill:#01234c;}.cls-6,.cls-7,.cls-8{fill:none;stroke:#000;}.cls-6,.cls-8{stroke-linecap:round;stroke-linejoin:round;}.cls-6{stroke-width:0.44px;}.cls-7{stroke-miterlimit:10;stroke-width:0.5px;}.cls-8{stroke-width:30px;}</style><linearGradient id="linear-gradient" x1="368.65" y1="309.46" x2="368.65" y2="859.46" gradientTransform="translate(699.3 946.59) rotate(180)" gradientUnits="userSpaceOnUse"><stop offset="0" stop-color="#fff"/><stop offset="0.33" stop-color="#f80" stop-opacity="0.7"/><stop offset="0.4" stop-color="#ff8201" stop-opacity="0.7"/><stop offset="0.48" stop-color="#ff7006" stop-opacity="0.68"/><stop offset="0.55" stop-color="#ff520d" stop-opacity="0.66"/><stop offset="0.63" stop-color="#ff2917" stop-opacity="0.63"/><stop offset="0.69" stop-color="#ff0320" stop-opacity="0.6"/><stop offset="0.74" stop-color="#ff0220" stop-opacity="0.64"/><stop offset="0.84" stop-color="#ff0021" stop-opacity="0.7"/></linearGradient></defs><title>V1.2 - wave unbordered.1 border</title><g id="Layer_2" data-name="Layer 2"><g id="Layer_4" data-name="Layer 4"><polyline class="cls-1" points="13.11 87.13 330.65 637.13 648.2 87.13"/><g id="Waves_LP" data-name="Waves LP"><g id="_Group_" data-name="&lt;Group&gt;"><path class="cls-2" d="M553,124.68l.16-.78c-14.36-17.35-24.68-20.3-31.68-19.36-6.22.82-9,4.6-27,11-5.8,2.09-8.92,3.19-13.22,4a61.9,61.9,0,0,1-19.88.65l0,.2a13,13,0,0,1-1.72,1.32,15.17,15.17,0,0,1-8.73,2.11c-5.71-.15-28.32,12.67-42.11,38.72-9.34,17.66-13,38.34-7,42.25,1.56,1,3.91,1,5.26,3.21,1.75,2.91-.1,7-1.92,10.19s-5.7,5.08-8.83,3.51c-2.34-1.18-3.48-4.11-4.11-8.63-1.43-10.24.72-17.88,3.43-29.41,4.59-19.49,3.92-20.78,7-27.28a72.72,72.72,0,0,1,10.7-15.95c10.76-12.31,22.85-18.22,32.42-22.78,41-19.52,61.74-29.29,75.69-29.92,0,0,13.36-1.27,36.09,5.28,2.88.83,7,2.25,9.74,6.12a13.6,13.6,0,0,1,1.19,2l.13-.06a70.41,70.41,0,0,1,34.25,49.9c-6,14.57-14.44,30.66-25.76,50.2,2.45-18.76-.37-34.09-7.68-41.93-8.68-9.31-17.83-10.58-17.83-10.58a24.71,24.71,0,0,0-3-.23,33.45,33.45,0,0,0-10.18,1.57,42.77,42.77,0,0,0-12.43,6.24q-.92.7-1.69,1.35c-3.41,2.87-4.88,5.05-7.08,5.31v.06a11.43,11.43,0,0,1-2.68,2.16,11.11,11.11,0,0,1-6.94,1.46c-4.93-1-8.78-11.27-7.29-19.92,0-.23.08-.46.13-.68,2.35-11.33,14-21,24.68-19.89a15.58,15.58,0,0,1,3.21.66l.11-.35A44.75,44.75,0,0,1,539,124,44,44,0,0,1,553,124.68Z"/><path class="cls-3" d="M569.46,159.37c7.31,7.84,10.13,23.17,7.68,41.93q-4.91,8.48-10.55,17.87c-4-5.73-10.43-10.34-18.38-10V209a38.68,38.68,0,0,0,8.19-7.67,35.78,35.78,0,0,0,8.24-22c.39-19-14.48-29.76-16-30.79a24.71,24.71,0,0,1,3,.23S560.78,150.06,569.46,159.37Z"/><path class="cls-2" d="M566.59,219.17q-3.83,6.38-8,13.23a14.26,14.26,0,0,0-4.52-7.28c-6.34-5.24-18.21-4-24.87,4.74a20.43,20.43,0,0,0-1.53,2.3c-.25-11.86,8.52-21.75,19.36-22.88.4,0,.79-.07,1.18-.08C556.16,208.82,562.59,213.44,566.59,219.17Z"/><path class="cls-3" d="M554.08,225.12a14.26,14.26,0,0,1,4.52,7.28q-4.37,7.16-9.13,14.88c1.33-6,.37-11.19-2.43-14.24-5.12-5.61-16-3.47-17.73-3.11l-.1-.07C535.87,221.12,547.74,219.88,554.08,225.12Z"/><path class="cls-2" d="M537.49,266.68c-.28.46-.57.92-.85,1.38a49.74,49.74,0,0,0-9.87-6,12.12,12.12,0,0,0,5.65-.84c1-.4,5.86-2.39,6.64-7.17a8.33,8.33,0,0,0-2-6.91c-3.19-3.48-8-2.44-8.26-2.38a8.34,8.34,0,0,0-3,1.36l-.76,0c-1.07-1.2-3.9-3.77-7.65-3.09a8.25,8.25,0,0,0-5.14,3.45l-.75.17a9.81,9.81,0,0,0-1.32-1l.17-.24c13.91-18.14,15.48-40.57,5-54.67-6.86-9.24-20.89-17.51-31.68-14.08-9.15,2.9-8.88,12.44-22,18.48-3.82,1.76-13.42,6.19-19.8,1.43a10.36,10.36,0,0,1-1.78-1.68l-.05,0a9,9,0,0,1-3-1.55c-5.17-4.14-3.78-13.26-3.34-16.15a31.86,31.86,0,0,1,5.1-12.89c9.86-14.72,27.76-18.48,32.12-19.4a62.27,62.27,0,0,1,29.48,1.09l.14,0c-.05.22-.1.45-.13.68-1.5,8.64,2.36,18.94,7.29,19.92a11.11,11.11,0,0,0,6.94-1.46,11.43,11.43,0,0,0,2.68-2.16V163c2.2-.26,3.67-2.44,7.08-5.31h.84a94.77,94.77,0,0,1,15,12.68c5.2,5.43,10,10.51,13.21,18.61a43.2,43.2,0,0,1,1.51,4.43c.12.45.24.88.34,1.31a43,43,0,0,1,.86,4.26c.09.58.17,1.13.23,1.64,0,.23,0,.46.07.67a38.68,38.68,0,0,1-8.19,7.67v.21c-.39,0-.78,0-1.18.08-10.84,1.14-19.61,11-19.36,22.88a20.43,20.43,0,0,1,1.53-2.3l.1.07c1.74-.36,12.61-2.5,17.73,3.11,2.8,3.05,3.76,8.28,2.43,14.24Q543.78,256.53,537.49,266.68Z"/><path class="cls-2" d="M556.1,199c.1.58.17,1.13.23,1.64C556.27,200.14,556.19,199.59,556.1,199Z"/><path class="cls-2" d="M554.9,193.44c.12.44.24.88.34,1.31C555.13,194.32,555,193.89,554.9,193.44Z"/><path class="cls-2" d="M549.47,247.28c-1.36,6.2-5.19,13.19-12,19.4Q543.77,256.51,549.47,247.28Z"/><path class="cls-4" d="M537,247.15a8.33,8.33,0,0,1,2,6.91c-.77,4.78-5.66,6.78-6.64,7.17a12.12,12.12,0,0,1-5.65.84,45.51,45.51,0,0,0-4.37-1.75l-.41-.14v0a8.93,8.93,0,0,0,4.47-4.06,9,9,0,0,0-1-9.35,6.8,6.8,0,0,0-.48-.57l.76,0a8.34,8.34,0,0,1,3-1.36C529,244.72,533.83,243.68,537,247.15Z"/><path class="cls-2" d="M531.34,276.59l-1.43,2.31q-8.29,13.39-17.55,28.38l-.48-.29a35.77,35.77,0,0,1-11.14,9.07c-7.31,3.74-12.57,3-21.82,7.65a53.43,53.43,0,0,0-7.17,4.37.68.68,0,0,1,0,.13c0,.41-.09.84-.15,1.29a10.59,10.59,0,0,1-3.54,2.32,10,10,0,0,1-5,.68c-2.31-.33-3.82-1.48-5.55-2.84-2.64-2.08-5.44-4-8.13-6a20.15,20.15,0,0,0-9.22-3.59l.33-2.17a24.49,24.49,0,0,0,4.87-2.78,25.05,25.05,0,0,0,7.69-9.47l-.54-.18a14.9,14.9,0,0,0,3.7-4.29c.93-1.67,3.34-6,2-10.4-.27-.91-1.21-3.48-9.41-9.3a94,94,0,0,0-9.58-6l0-.18c1.59.2,3.85.47,6.55.68l1.82.14a123.2,123.2,0,0,0,18.63-.17v-.07a20.5,20.5,0,0,0,7.78-3.28c3.69-2.61,5.19-5.85,6.16-7q.22-.28.48-.55a18,18,0,0,1,3.62-3.1,30.77,30.77,0,0,1,13.57-4.44,56.67,56.67,0,0,1,14.28.34,57.53,57.53,0,0,1,9.89,2.32l.41.14a45.51,45.51,0,0,1,4.37,1.75,49.74,49.74,0,0,1,9.87,6Z"/><path class="cls-3" d="M525.51,246.75a9,9,0,0,1,1,9.35,8.93,8.93,0,0,1-4.47,4.06v0a57.53,57.53,0,0,0-9.89-2.32l0-.14a8.58,8.58,0,0,0,1.89-6.91,7.66,7.66,0,0,0-2.5-4.1l.75-.17a8.25,8.25,0,0,1,5.14-3.45c3.75-.68,6.57,1.89,7.65,3.09A6.8,6.8,0,0,1,525.51,246.75Z"/><path class="cls-4" d="M440.91,236.65a9.68,9.68,0,0,1,5.8-4.93c3.41-1.14,6.38,0,8.78.48v0a33.88,33.88,0,0,0,9.68-6.16l.55-.5c.81-.77,8.59-8.43,6.5-18-1.8-8.23-9.61-11.9-10.56-12.32,13.12-6,12.85-15.58,22-18.48,10.8-3.43,24.83,4.84,31.68,14.08,10.47,14.1,8.91,36.53-5,54.67l-.17.24a11.46,11.46,0,0,0-1.9-1c-.29-.12-.51-.2-.64-.25a9.88,9.88,0,0,0-6-.27c-1.08.32-3.58,1-4.6,3.32a5.13,5.13,0,0,0-.4,2.57l-.21.08a19.24,19.24,0,0,0-1-2.24c-5.08-9.55-16.48-11.16-17.94-11.34-7-.88-14,1.53-19.67,5.78-22.5,2.39-31.41,10.23-35.47,16.57-5,7.75-3.56,14.68-3.69,22.25l-2.47,0c-.25-.4-.54-.88-.83-1.43a23.21,23.21,0,0,1-1.27-2.77c-4.16-11,1.25-21.65,2.09-23.29,5-9.76,15.66-14.29,17.24-14.94a34.54,34.54,0,0,1,7.35-2.1Zm71.7-42c0-1.75-1.86-3.62-4.52-3.7-3.14.68-5.32,2.4-5.27,3.9.07,2,3.43,3.85,6.16,3.25C510.48,197.8,512.6,196.55,512.61,194.68Zm-15.67,7.07a3.27,3.27,0,0,0,4.7.48c-.77-3.13-2.08-5.22-3.14-5.12S495.68,199.92,496.94,201.75Z"/><path class="cls-3" d="M514,250.81a8.58,8.58,0,0,1-1.89,6.91l0,.14a56.67,56.67,0,0,0-14.28-.34l-.06-.55a20.72,20.72,0,0,0-1.29-6.83l.21-.08a5.13,5.13,0,0,1,.4-2.57c1-2.29,3.52-3,4.6-3.32a9.88,9.88,0,0,1,6,.27c.13,0,.35.12.64.25a11.46,11.46,0,0,1,1.9,1,9.81,9.81,0,0,1,1.32,1A7.66,7.66,0,0,1,514,250.81Z"/><path class="cls-2" d="M508.08,191c2.67.08,4.53,1.95,4.52,3.7s-2.13,3.12-3.63,3.45c-2.73.61-6.09-1.21-6.16-3.25C502.77,193.39,504.94,191.66,508.08,191Z"/><path class="cls-2" d="M475,350l-1.56-2a16.71,16.71,0,0,0,2.65-9.2,16.88,16.88,0,0,0-4-10.54l-.39,0a.68.68,0,0,0,0-.13,53.43,53.43,0,0,1,7.17-4.37c9.25-4.66,14.51-3.91,21.82-7.65A35.77,35.77,0,0,0,511.88,307l.48.29L507,316c-24,39-46.32,75.81-66.88,110.15-.16-2.46-.44-5.4-1-8.7a92.1,92.1,0,0,0-2.41-10.83,72.1,72.1,0,0,0-9.22-20.84s-.3-.46-.87-1.23h.4c-1.4-3.19-4.94-12.37-1.69-22,.21-.62.48-1.39.83-2.24a17.78,17.78,0,0,1,4.27-6.17,19.12,19.12,0,0,1,1.7-1.42,16.61,16.61,0,0,1,8.41-3.21c5.91-.5,10.87,2.32,10.76,2.83,0,.18-.7.16-2.44.1-2.17-.07-5.57-.18-7.94.94a8.51,8.51,0,0,0-4.62,7.28c0,1,.11,4.62,3.12,6.42a7,7,0,0,0,7.55-.48l.32.06c.19-1,.33-2,.44-3a33.62,33.62,0,0,0,0-6.73,84.29,84.29,0,0,1,8.51-2c7.73-1.36,10.77-.8,15.11-2.74A15.86,15.86,0,0,0,475,350Z"/><path class="cls-2" d="M501.64,202.23a3.27,3.27,0,0,1-4.7-.48c-1.26-1.83.4-4.53,1.56-4.64S500.87,199.1,501.64,202.23Z"/><path class="cls-4" d="M449,252.21a33.62,33.62,0,0,1,8.8-9.87c5.65-4.25,12.62-6.66,19.67-5.78,1.45.18,12.86,1.79,17.94,11.34a19.24,19.24,0,0,1,1,2.24,20.72,20.72,0,0,1,1.29,6.83l.06.55a30.77,30.77,0,0,0-13.57,4.44l-.1-.15a10.52,10.52,0,0,0-1.21-5.32c-1.79-3.29-6.28-7-11-5.4a8.75,8.75,0,0,0-5.71,9.42c.06.37.78,4.7,4.61,6.11,2.09.77,5.39.82,7.31-1.51a4,4,0,0,0,.29-.39l2.2.33q-.25.28-.48.55c-1,1.19-2.47,4.44-6.16,7a20.5,20.5,0,0,1-7.78,3.28V276a123.2,123.2,0,0,1-18.63.17l-1.82-.14.06-.74A32.45,32.45,0,0,1,447.58,255c.43-1,.92-1.9,1.44-2.83Z"/><path class="cls-5" d="M478.42,264.71a4,4,0,0,1-.29.39c-1.93,2.32-5.22,2.28-7.31,1.51-3.83-1.41-4.55-5.74-4.61-6.11a8.75,8.75,0,0,1,5.71-9.42c4.74-1.59,9.23,2.11,11,5.4a10.52,10.52,0,0,1,1.21,5.32l.1.15a18,18,0,0,0-3.62,3.1Z"/><path class="cls-3" d="M471.58,329.5c.06-.45.11-.88.15-1.29l.39,0a16.88,16.88,0,0,1,4,10.54,16.71,16.71,0,0,1-2.65,9.2l1.56,2a15.86,15.86,0,0,1-3.63,2.29c-4.34,1.94-7.38,1.37-15.11,2.74v-.28a38.43,38.43,0,0,0,13.2-16.92A36.2,36.2,0,0,0,471.58,329.5Z"/><path class="cls-2" d="M471.58,329.5a36.2,36.2,0,0,1-2.13,8.27,38.43,38.43,0,0,1-13.2,16.92V355a84.29,84.29,0,0,0-8.51,2,33.62,33.62,0,0,1,0,6.73c-.11,1-.25,2-.44,3l-.32-.06a7,7,0,0,1-7.55.48c-3-1.8-3.14-5.4-3.12-6.42a8.51,8.51,0,0,1,4.62-7.28c2.37-1.13,5.76-1,7.94-.94,1.73.06,2.39.09,2.44-.1.11-.51-4.85-3.34-10.76-2.83a16.61,16.61,0,0,0-8.41,3.21l-1.7-2a8.4,8.4,0,0,0-1.7-2,10.15,10.15,0,0,0-4.91-2c-4.06-.48-9.15,2.34-11.81,6.52-2.93,4.6-2.83,10.75.1,16l-.16.22c-9.55-6.72-23.46-9.06-37.56-7.9l-.1-1.12a40,40,0,0,0,5.49-4.18c1.3-1.19,3.11-3.15,7.81-9.35,2.51-3.3,4.43-6.17,5.72-8.19h0l.13-.21a22.2,22.2,0,0,0,3,.7,26.53,26.53,0,0,0,9.1-.35,13,13,0,0,0,4.31-2c7.06-4.74,13.41-15.53,23.7-16.92a25.44,25.44,0,0,1,6.55.16,20.15,20.15,0,0,1,9.22,3.59c2.69,2,5.49,3.89,8.13,6,1.73,1.36,3.24,2.52,5.55,2.84a10,10,0,0,0,5-.68A10.59,10.59,0,0,0,471.58,329.5Z"/><path class="cls-4" d="M438.91,275.58l-.13-.3.43.06,0,.18a94,94,0,0,1,9.58,6c8.19,5.83,9.14,8.4,9.41,9.3,1.34,4.41-1.07,8.73-2,10.4a14.9,14.9,0,0,1-3.7,4.29c-11.22,9.07-36.47,7.71-39.62,7.49l-.23,0-.22-.73.2-.06a44.29,44.29,0,0,0,16.49-8.73c4.37-3.71,10.38-8.79,11.41-17A21.31,21.31,0,0,0,438.91,275.58Z"/><path class="cls-3" d="M457.83,242.34a33.62,33.62,0,0,0-8.8,9.87h0a18.37,18.37,0,0,1-8.31,4.81c-4.14,1-6.9,0-9.22,1.91-1.87,1.58-2.31,4.16-2.39,6a11.46,11.46,0,0,0-2.38,2.88c-4.38,7.1.11,20.95-1,24.62a8.5,8.5,0,0,1-.53,1.36,8.37,8.37,0,0,1-2.27,2.75s0,.05,0,.09a6.09,6.09,0,0,1-.08,1.91,6.33,6.33,0,0,1-1.1,2.46c-1,1.49-4.42,5.67-9.22,11.12v0l-.2.06h0c-2.44,1.6-5.58,3.78-9.07,6.58-.71.57-5,4-9.41,8.38-6.55,6.48-9.76,11.42-13.63,16.82l0,.34h0l-.57,0c-1.24,0-3-.14-10.47-.86l0-.48a110.48,110.48,0,0,1,16.66-21.53c14.51-14.59,21.76-13.54,28.28-24.15a30,30,0,0,0,4.49-16.21c.13-7.57-1.27-14.5,3.69-22.25C426.42,252.57,435.34,244.73,457.83,242.34Z"/><path class="cls-3" d="M452.47,305.5l.54.18a25.05,25.05,0,0,1-7.69,9.47,24.49,24.49,0,0,1-4.87,2.78l-.33,2.17a25.44,25.44,0,0,0-6.55-.16c-10.29,1.4-16.64,12.19-23.7,16.92l-.18-.27a21.44,21.44,0,0,0,3.14-23.5V313C416,313.21,441.25,314.57,452.47,305.5Z"/><path class="cls-3" d="M429.12,265c.08-1.86.51-4.44,2.39-6,2.31-1.95,5.08-.87,9.22-1.91a18.37,18.37,0,0,0,8.31-4.81c-.53.92-1,1.87-1.44,2.83a32.45,32.45,0,0,0-1.76,20.24l-.06.74c-2.7-.21-5-.48-6.55-.68l-.43-.06.13.3a17.42,17.42,0,0,1-1.85,12.89c-4.54,7.53-13.2,8.11-13.94,8.16l-.13,0s0-.06,0-.09a8.37,8.37,0,0,0,2.27-2.75,8.5,8.5,0,0,0,.53-1.36c1.06-3.67-3.42-17.51,1-24.62A11.46,11.46,0,0,1,429.12,265Z"/><path class="cls-5" d="M438.91,275.58a21.31,21.31,0,0,1,1.59,10.84c-1,8.23-7,13.31-11.41,17a44.29,44.29,0,0,1-16.49,8.73v0c4.8-5.46,8.19-9.64,9.22-11.12a6.33,6.33,0,0,0,1.1-2.46,6.09,6.09,0,0,0,.08-1.91l.13,0c.74,0,9.4-.62,13.94-8.16A17.42,17.42,0,0,0,438.91,275.58Z"/><path class="cls-2" d="M346.09,368.66h0a88.47,88.47,0,0,1,28.31-7.09c14.11-1.15,28,1.18,37.56,7.9l.59.41a70.67,70.67,0,0,1,14.08,14.65c.57.77.87,1.23.87,1.23a72.1,72.1,0,0,1,9.22,20.84,92.1,92.1,0,0,1,2.41,10.83c.53,3.29.81,6.23,1,8.7-42.1,70.34-76.74,130.14-102.91,176l-1.28-.73c-15.41-62.6-4-93.94,9.73-111,12.51-15.61,37.11-30.8,49.29-62.19,5-12.93,5.36-21.85,2.47-29.56-.84-2.24-5.38-14.35-16.6-16.61-10.36-2.08-21.6,5.19-24,12.77-.7,2.19-.59,4.18-1.75,7.3a19.88,19.88,0,0,1-.8,1.9c-1.3,2.73-2.85,6-6.13,7.67-5.37,2.75-11.61-.62-12.69-1.24-4.93,1.83-10.7.75-13.63-2.44-2.6-2.82-2.68-7-2.07-10.6a34.36,34.36,0,0,1,2.07-7C325.53,381.17,334.7,373.72,346.09,368.66Z"/><path class="cls-2" d="M430.46,350.73l1.7,2a19.12,19.12,0,0,0-1.7,1.42,17.78,17.78,0,0,0-4.27,6.17l-.26,0a5.7,5.7,0,0,1-4.53-10.39,7.5,7.5,0,0,1,5.67-.76A8.63,8.63,0,0,1,430.46,350.73Z"/><path class="cls-3" d="M428.76,348.74a8.4,8.4,0,0,1,1.7,2,8.63,8.63,0,0,0-3.4-1.61,7.5,7.5,0,0,0-5.67.76,5.68,5.68,0,0,0,4.53,10.39l.26,0c-.35.84-.62,1.61-.83,2.24-3.25,9.61.29,18.79,1.69,22h-.4a70.67,70.67,0,0,0-14.08-14.65l-.59-.41.16-.22c-2.92-5.21-3-11.35-.1-16,2.66-4.18,7.75-7,11.81-6.52A10.15,10.15,0,0,1,428.76,348.74Z"/><path class="cls-5" d="M416.2,281.12l2.47,0a30,30,0,0,1-4.49,16.21c-6.52,10.61-13.77,9.56-28.28,24.15a110.48,110.48,0,0,0-16.66,21.53l0,.48-.4,0c-4.87-.48-7.44-.75-8.8-.88,3.71-5.54,7-10,9.54-13.31,7.59-9.92,11.44-13.49,13.18-15l.32-.27c2.32-2,3.11-2.32,7.93-5.78,6.6-4.74,11.74-8.78,15.05-11.45a16.3,16.3,0,0,0,4.59-6.57c.94-2.6.94-5,2.88-8.11a18.43,18.43,0,0,1,1.8-2.4l.08,0C415.67,280.24,416,280.71,416.2,281.12Z"/><path class="cls-2" d="M415.42,206.23c0,3-.47,5.26-1.36,5.43s-3.28-2.17-2.38-4.07A3.1,3.1,0,0,1,415.42,206.23Z"/><path class="cls-5" d="M412.84,313.09a21.44,21.44,0,0,1-3.14,23.5l.18.27a13,13,0,0,1-4.31,2,26.53,26.53,0,0,1-9.1.35,22.2,22.2,0,0,1-3-.7l-.13.21h0c-5.88,4.49-10.25,5.52-13.05,5.66l0-.34c3.87-5.4,7.09-10.34,13.63-16.82,4.4-4.35,8.7-7.81,9.41-8.38,3.49-2.8,6.64-5,9.07-6.58h0l.22.73.23,0Z"/><path class="cls-2" d="M414.23,199.54c.38,1.79-.58,4.07-2.38,4.41s-3.26-1.2-3.73-2.72c-.57-1.81.24-4.28,2-4.74S413.84,197.68,414.23,199.54Z"/><path class="cls-4" d="M339.34,439l-.26-2.2a23.53,23.53,0,0,0,7.48-2.6,32.69,32.69,0,0,0,9.27-6.71h.52c.13-.29.26-.58.39-.88a28.4,28.4,0,0,0,1.61-16,31,31,0,0,0-2.66-8.32l-.62-.23c1.16-3.12,1.06-5.1,1.75-7.3,2.41-7.58,13.65-14.85,24-12.77,11.22,2.25,15.75,14.36,16.6,16.61,2.89,7.71,2.54,16.63-2.47,29.56-12.18,31.39-36.78,46.58-49.29,62.19-13.69,17.09-25.15,48.43-9.73,111l1.28.73q-3.52,6.15-6.83,12C320,595.12,307.9,573.31,294.22,549c1.12-16.69,5.55-28.65,10.08-37a71,71,0,0,1,4.37-7,94.34,94.34,0,0,1,12-13.68A166.69,166.69,0,0,1,348.84,470c.87-.53,1.75-1.06,2.63-1.57l-.18-.32a5.17,5.17,0,0,0,2.39-5.1c-.59-2.94-4.22-3.71-4.43-3.75-3.39-.66-7.44,2-9.88,6.81a11.32,11.32,0,0,1,0-8.51,10,10,0,0,1,2.13-3.07l-.09-.33c0-.31.46-3.92-1.36-5.1s-5.87.09-8.52,4.43a11.33,11.33,0,0,1,0-8.18,11,11,0,0,1,5.11-5.45A9.14,9.14,0,0,1,339.34,439Z"/><path class="cls-2" d="M238.46,326.38l0-.13a4.74,4.74,0,0,1,2.24-6.11,26.69,26.69,0,0,0-4.59-.71c-2.06-.14-3.16,0-4.73,0a24,24,0,0,1-6.94-1.1l-.38-.21a12,12,0,0,0-1.15,2.65l-.05.19.26.07A73.69,73.69,0,0,0,238.46,326.38Zm102.62,16c-3.64,11.06-9.74,15.74-12.56,17.54-11.87,7.55-30.11,5.2-38.08,1.94a25.29,25.29,0,0,0-9.54-2.14,24.94,24.94,0,0,0-9,1.57l-.09.08.42.49c3.39,3.87,10.75,8,28.37,8.9,10.24-.7,21.73-3,29.92-9.19a25.3,25.3,0,0,0,8.8-10.56A23,23,0,0,0,341.08,342.35ZM150.62,62.22l-.12.07c-4.36-1.13-12.45-2.79-20.64.88-15.56,7-21.05,24.09-21.7,26.24-.14.46-.24.81-.31,1-6,21.37,4.53,40.72,9.68,50.17a100.34,100.34,0,0,0,18.29,24,122.25,122.25,0,0,0,39.8,25.32,39.31,39.31,0,0,1-8.32-14.24c-.18-.52-.33-1.06-.48-1.6A38.37,38.37,0,0,1,182.93,131c9.25-6,21.59-9.07,30.39-4.22.24.12.48.26.7.4a19.17,19.17,0,0,1,5.9,5.83h0a11.42,11.42,0,0,1,.92.83c6.43,6.37,7.86,21.55-.33,27-6.34,4.21-16.89,1.57-21.54-3.56a8.46,8.46,0,0,1-2.23-4.36c-.83-5.47,5.11-12.66,15-15.84a26.46,26.46,0,0,0-14.08.88c-11.4,4.07-18.36,16.21-18.48,26.4-.16,14.24,12.9,25.68,22.08,31.13.4.25.79.48,1.18.69v.24a22.35,22.35,0,0,1,4.71.18,22.06,22.06,0,0,1,7.38,2.61c2.39,1.34,3.93,2.83,6.94,5.76,1.56,1.52,2.9,2.95,4,4.22q.69.77,1.27,1.45a12.7,12.7,0,0,1,3.45,7.42c.58,6.93-5.57,13.69-10.52,14.08a5.4,5.4,0,0,1-.92,0c-4-.37-5.25-5.63-7.76-8.92a6,6,0,0,0-3.68-2.52c-7-1.3-18.2,11.71-19.36,25.52-1.18,14,9,24.71,10.56,26.4a37.79,37.79,0,0,0,6,5.17l.19-.11c1.45,2.46,2.81,4.4,3.76,5.77a56.65,56.65,0,0,0,4.26,5.41q1.56,1.73,3.08,3.15l0,0c.24,0,.52,0,.83.07a22.58,22.58,0,0,1,3.1.58c5.5,1.46,12.13,3.23,13.93,6.56a17.24,17.24,0,0,0,2.42,3.54c.41.46.74.74.86.89a12.51,12.51,0,0,1,1.69,2.63,107.19,107.19,0,0,1,13.06,2.94c17.25,5,19.39,10.32,29.32,10,3.28-.11,7.88-.87,14.59.49a42.63,42.63,0,0,1,5.84,1.62l.06.54c6.9-.86,31.09-2.4,45.71,7.16a42.08,42.08,0,0,1,8.8,7.92l3.52,5.28,0,.39.48.05c1.36.13,3.93.4,8.8.88l.4,0c7.46.72,9.23.88,10.47.86l.57,0h0c2.8-.14,7.17-1.17,13.05-5.66-1.29,2-3.21,4.89-5.72,8.19-4.7,6.2-6.5,8.16-7.81,9.35a40,40,0,0,1-5.49,4.18l.1,1.12a88.47,88.47,0,0,0-28.31,7.09h0c-11.4,5.06-20.56,12.52-24.28,21.65a34.36,34.36,0,0,0-2.07,7l-.7-.11a69.82,69.82,0,0,1-14.13,5.43,57.91,57.91,0,0,1-11.38,1.77,20.84,20.84,0,0,0-2.62-4.89,21.41,21.41,0,0,0-10.33-7.68c-10.71-3.64-20,3-21.05,3.71V396a19,19,0,0,0-12.79,5.1,19.53,19.53,0,0,0-5.1,7.83l-.72.09c-.47-3.85-1.14-7.85-2-12-3.21-14.65-9.21-42-28.19-56.33-3.61-2.72-10.76-7.43-18.14-16.45a110.67,110.67,0,0,1-10.84-16.45c-2.31-4.06-3.75-7.06-6.54-12.9l1.1-.27A168,168,0,0,0,197,304.36a62.92,62.92,0,0,0,9.41,2.8c.48.1,1.4.27,2.69.56v-.06a5.42,5.42,0,0,1,1.53-9.74,19.06,19.06,0,0,0-4.22-.16c-2.65.19-3.79.84-5.91,1.07a14.92,14.92,0,0,1-6.29-.69h-.17c0-3.34,2.5-6.59,6.29-7.94a31,31,0,0,0-4.66-1.26c-3.5-.68-4.26-.21-8.44-.62-2.2-.22-4.15-.54-5.79-.85l.11-.61a5,5,0,0,1,4.52-6.36,7.37,7.37,0,0,0-4-1.15,10.2,10.2,0,0,0-4.23,1.22l-.58-.75A58.74,58.74,0,0,1,172.54,259c-.08-1.87-.07-3.63,0-5.28l.11-.31-.46-.18-.05-.14a14.39,14.39,0,0,1-2.17.62l-.08,0c-4.55,1-8.43-.57-11.44-1.76a21.24,21.24,0,0,1-2.86-1.31s-.52-.3-1-.63a15.83,15.83,0,0,1-3.73-4.37l-.32-.48c-1.72-2.61-2.57-3.91-3.59-4.79-1.18-1-2.63-2.28-4.59-2.2-2.75.11-4.43,2.76-4.66,3.13l.82,2c-2.26,1-8.94,5.66-11.63,15.13a28.12,28.12,0,0,0-.89,4.62c-12-19.67-22.3-36.62-31.09-51.6l.16-.1a31.43,31.43,0,0,0,1.78,2.79l.16-.11a17.64,17.64,0,0,1,.53-13,16.1,16.1,0,0,1,4.18-5.4l.08-.67c1.11.14,1.9.13,2.08-.32.39-1-2.53-3.38-6.16-5.28-7.89-4.14-12.74-2.62-17.3-3.45a365,365,0,0,1-16.31-33.35A187.92,187.92,0,0,1,57,132.47a.07.07,0,0,0,0,0c-2.09-10.45-3.39-16.9-2.34-28,.1-1,.21-2,.33-2.95a86.27,86.27,0,0,1-.36-10c0-.2,0-.4,0-.61s0-.23,0-.35c0-.33,0-.65,0-1h0c0-.43,0-.87.07-1.3,0-.63.08-1.28.14-1.93s.1-1.08.15-1.63.09-.81.14-1.21l.13-1c.1-.77.21-1.54.34-2.31l.16-.9c.2-1.16.44-2.33.7-3.52.07-.28.13-.56.2-.85s.13-.55.2-.83c.23-.92.48-1.84.75-2.77l.26-.87Q58.43,68.75,59,67c.31-.84.62-1.68,1-2.53.24-.59.48-1.18.75-1.77.13-.31.26-.62.41-.92s.33-.76.52-1.14l.26-.54c.18-.39.38-.77.57-1.15s.51-1,.77-1.49a69.64,69.64,0,0,1,4.2-6.83C85,25.52,114.37,18.56,124.41,16.18c21.44-5.09,37.06-1.36,40.59-.45,8.13,2.08,19.21,5.07,27.91,15.21,2.69,3.14,10.54,13.31,9.94,27a33.73,33.73,0,0,1-2.79,12.29l-.11.23-.38.78a.22.22,0,0,1,0,.06c-.08.17-.17.33-.26.5l0,0c-.21.39-.43.77-.66,1.14l-.14.23-.43.65s0,0,0,0c-.3.44-.62.88-1,1.31l-.52.64-.6.7-.53.57-.06.06-.35.36c-.16.16-.32.32-.49.48l-.3.27c-.33.3-.69.6-1.07.89l-.32.24c-.18.13-.36.26-.55.39l-.53.33a16.16,16.16,0,0,1-2.56,1.28,16.93,16.93,0,0,1-6.42,1.16l-.14-.18A13.29,13.29,0,0,1,179,84.59a9.93,9.93,0,0,1-2.91.38,13.56,13.56,0,0,1-3.92-.59,14.9,14.9,0,0,1-1.64-.62l-.47-.23,0,0a7.37,7.37,0,0,1-2,1.6c-3.84,2.13-8.81.33-12.12-2.21a14.59,14.59,0,0,1-1.44-1.25A17.27,17.27,0,0,1,151,76.38c-1.2-2.75-1.65-5.78-.68-8.19.39-1,1.43-2.79.84-4.84A4.42,4.42,0,0,0,150.62,62.22Zm72.49,88.22a1.64,1.64,0,0,0,.16-2.05,1.69,1.69,0,0,0-1.36-.45,1.52,1.52,0,0,0-1.06.38c-.4.49-.15,1.63.84,2.65A1.84,1.84,0,0,0,223.1,150.44Z"/><path class="cls-3" d="M269.36,301.34c4.64,1.52,9.26,2.75,13,3.6l1,.2A141.94,141.94,0,0,0,306.76,307l1.4,0c.86,0,1.71-.12,4.16-.32,4.28-.33,12.93-3.86,20.84-1.42a16.91,16.91,0,0,1,3.39,1.45l0,.07c16.26-4.59,31.8.24,31.8.24a49.14,49.14,0,0,1,14.08,7l.28.32c-1.74,1.49-5.6,5.06-13.18,15-2.51,3.28-5.83,7.77-9.54,13.31l-.48-.05,0-.39L356,336.89a42.08,42.08,0,0,0-8.8-7.92c-14.62-9.57-38.81-8-45.71-7.16l-.06-.54a42.63,42.63,0,0,0-5.84-1.62c-6.72-1.36-11.31-.61-14.59-.49-9.93.36-12.07-4.93-29.32-10a107.19,107.19,0,0,0-13.06-2.94,12.51,12.51,0,0,0-1.69-2.63c-.12-.15-.45-.43-.86-.89a17.24,17.24,0,0,1-2.42-3.54c-1.8-3.33-8.43-5.1-13.93-6.56a22.58,22.58,0,0,0-3.1-.58c-.31,0-.59-.06-.83-.07l0,0q-1.52-1.43-3.08-3.15a56.65,56.65,0,0,1-4.26-5.41c-1-1.37-2.31-3.31-3.76-5.77a59,59,0,0,1-7.08-18.25c-1.57-7.83-3.17-15.66.88-23.76a28.92,28.92,0,0,1,12.32-12.32l.16-.12c2.51,3.29,3.73,8.55,7.76,8.92a5.4,5.4,0,0,0,.92,0l2.55.41a24.63,24.63,0,0,1-.84,4c-1.72,5.79-4.41,7-4.4,9.68,0,3.48,4.7,7.41,9.8,8.5l-.11.52c-.86,4.33-.64,7.87.17,9.68a6.43,6.43,0,0,0,1.84,2.42,5.13,5.13,0,0,0,1.61.77l.17-.07a5,5,0,0,0,.84,1.43c2.62,3.13,8.23,1.52,8.85,1.39a9.64,9.64,0,0,0,2.88-1.14l.09.15,0,.16c.08.48.19,1.06.35,1.69l-.11,0a9.48,9.48,0,0,0-7.92,7c-1.14,4.62,1.6,9.13,4.11,10.15a10.63,10.63,0,0,1,1.89.84,9,9,0,0,1,2.31,2l.11-.08a18.05,18.05,0,0,1,3.57.32,18.54,18.54,0,0,1,6.49,2.65A76,76,0,0,0,269.36,301.34ZM233.55,275.7c.11-.36.41-1.41-.14-2s-2.14-.36-3,.42a3,3,0,0,0-.84,2.12,2.26,2.26,0,0,0,2,1.57C232.94,277.79,233.5,275.9,233.55,275.7Zm-20.09-41.85a1.54,1.54,0,0,0,.93-1.51,1.75,1.75,0,0,0-1.87-1.3c-.48.17-.56,1-.4,1.51A2.35,2.35,0,0,0,213.46,233.85Zm-2.81-3.74a1.59,1.59,0,0,0-1.32-1.65,1.83,1.83,0,0,0-1.82,1.73,1.64,1.64,0,0,0,1.73,1.39A1.57,1.57,0,0,0,210.65,230.11Z"/><path class="cls-2" d="M358.35,410.57a28.4,28.4,0,0,1-1.61,16c-.12.3-.26.59-.39.88h-.52a32.69,32.69,0,0,1-9.27,6.71,23.53,23.53,0,0,1-7.48,2.6,13.55,13.55,0,0,1-3.11,0,15.3,15.3,0,0,1-7.12-2.81,12.25,12.25,0,0,0-5.84,4.7,12.62,12.62,0,0,0-1.52,9.72l0,.8c-2.7.18-4.34-.44-7,.21a14.25,14.25,0,0,0-7.49,5.11c.62-.1,5.32-.72,8.17,2.39a5.4,5.4,0,0,1,1,1.65l-.36.05a90.22,90.22,0,0,1-18.05,1,91.29,91.29,0,0,1-12.92-1.52l.1-.54a26.47,26.47,0,0,1-6.1-9.63,26.81,26.81,0,0,1-.84-14.5l.13-.15a28,28,0,0,1,5.33,6.28c.45-1,3.83-8.81-.34-16.69l-.06-.11.4-.22a15.8,15.8,0,0,0,.71-3.89l1.09.05a28.58,28.58,0,0,1,4.5-4.17l1.28-.46c1.87,4,1.42,8.57,1.84,8.57.74,0,4-9.27.58-18.23a57.91,57.91,0,0,0,11.38-1.77A69.82,69.82,0,0,0,319,397.2l.7.11c-.62,3.6-.53,7.78,2.07,10.6,2.93,3.19,8.7,4.27,13.63,2.44,1.08.62,7.32,4,12.69,1.24,3.28-1.69,4.83-4.94,6.13-7.67a19.88,19.88,0,0,0,.8-1.9l.62.23A31,31,0,0,1,358.35,410.57Z"/><path class="cls-3" d="M317.23,471.52c.08-.74.16-1.65.18-2.68a34.2,34.2,0,0,0-.18-4.77,20.94,20.94,0,0,0-1-5.5,5.4,5.4,0,0,0-1-1.65c-2.85-3.11-7.54-2.48-8.17-2.39a14.25,14.25,0,0,1,7.49-5.11c2.66-.65,4.3,0,7-.21.37,0,.76-.07,1.17-.12a18.29,18.29,0,0,0,8.52-3.75h.33a11.33,11.33,0,0,0,0,8.18c2.65-4.34,6.69-5.63,8.52-4.43s1.4,4.8,1.36,5.1l.09.33a10,10,0,0,0-2.13,3.07,11.32,11.32,0,0,0,0,8.51c2.44-4.79,6.49-7.47,9.88-6.81.21,0,3.84.81,4.43,3.75a5.17,5.17,0,0,1-2.39,5.1l.18.32c-.88.51-1.76,1-2.63,1.57a166.69,166.69,0,0,0-28.21,21.27l-.33-.33a9,9,0,0,0,0-6.22,7.35,7.35,0,0,0-.66-1.28,8.35,8.35,0,0,0-7.83-3.74,34.37,34.37,0,0,1,5.11-7.83Z"/><path class="cls-3" d="M341.08,342.35a23,23,0,0,1-1.76,8.63,25.3,25.3,0,0,1-8.8,10.56c-8.19,6.19-19.69,8.49-29.92,9.19-17.62-.85-25-5-28.37-8.9l-.42-.49.09-.08a24.94,24.94,0,0,1,9-1.57,25.29,25.29,0,0,1,9.54,2.14c8,3.27,26.21,5.62,38.08-1.94C331.34,358.09,337.44,353.41,341.08,342.35Z"/><path class="cls-3" d="M339.09,436.79l.26,2.2a9.14,9.14,0,0,0-2.69.9,11,11,0,0,0-5.11,5.45h-.33a18.29,18.29,0,0,1-8.52,3.75c-.41.05-.8.1-1.17.12l0-.8a12.62,12.62,0,0,1,1.52-9.72,12.25,12.25,0,0,1,5.84-4.7A15.3,15.3,0,0,0,336,436.8,13.55,13.55,0,0,0,339.09,436.79Z"/><path class="cls-2" d="M320.31,491l.33.33a94.34,94.34,0,0,0-12,13.68,71,71,0,0,0-4.37,7,10.17,10.17,0,0,0-1.18-4.78,10.48,10.48,0,0,0-5.62-4.74c-5.12-1.74-9.6,1.68-10.24,2.18-.21-1.82-.74-8.2,3-13.84a16.59,16.59,0,0,1,1.42-1.86,17.78,17.78,0,0,1,8.52-5.17c.83-.26,1.59-.45,2.28-.62A25.93,25.93,0,0,1,319.62,485l.66-.26A9,9,0,0,1,320.31,491Z"/><path class="cls-3" d="M320.28,484.75l-.66.26a25.93,25.93,0,0,0-17.16-1.82c-.69.18-1.45.37-2.28.62l-.31-1a9.29,9.29,0,0,0-2.72-4.43c-2.66-2.3-5.58-1.71-5.79-2.72-.33-1.52,5.77-4.66,12.26-6.13a39.69,39.69,0,0,1,13.62-.68h.18c0,1-.11,1.95-.18,2.68l-.33.38a34.37,34.37,0,0,0-5.11,7.83,8.35,8.35,0,0,1,7.83,3.74A7.35,7.35,0,0,1,320.28,484.75Z"/><path class="cls-4" d="M317.23,464.06a34.2,34.2,0,0,1,.18,4.77h-.18a39.69,39.69,0,0,0-13.62.68c-6.49,1.48-12.59,4.61-12.26,6.13.21,1,3.13.42,5.79,2.72a9.29,9.29,0,0,1,2.72,4.43l.31,1a17.78,17.78,0,0,0-8.52,5.17l-.64-.73a18.38,18.38,0,0,1-9.19-3.75,18.66,18.66,0,0,1-6.48-9.88,11.46,11.46,0,0,0-7.15,1.71c-4.06,2.67-4.77,7.34-5.1,9.53a18.18,18.18,0,0,0,2,11.24l-.24.15q-5.16-9-10.55-18.4l.23-.13a14.09,14.09,0,0,1,5.11-7.16c3.16-2.16,5.82-1.61,8.85-2.72s6.81-4,9.75-11.94c0-.11.09-.21.12-.32,2,.53,4.12,1,6.49,1.5a91.29,91.29,0,0,0,12.92,1.52,90.22,90.22,0,0,0,18.05-1l.36-.05A20.94,20.94,0,0,1,317.23,464.06Z"/><path class="cls-2" d="M303.12,507.23A10.17,10.17,0,0,1,304.3,512c-4.52,8.31-9,20.27-10.08,37q-13.61-24.21-29.32-51.72l.24-.15a18.18,18.18,0,0,1-2-11.24c.33-2.19,1-6.87,5.1-9.53a11.46,11.46,0,0,1,7.15-1.71,18.66,18.66,0,0,0,6.48,9.88,18.38,18.38,0,0,0,9.19,3.75l.64.73a16.59,16.59,0,0,0-1.42,1.86c-3.71,5.64-3.19,12-3,13.84.63-.5,5.11-3.93,10.24-2.18A10.48,10.48,0,0,1,303.12,507.23Z"/><path class="cls-2" d="M289.87,282.62c-.18.48-.35.94-.52,1.35a29.77,29.77,0,0,1-7.5,11.19,27.16,27.16,0,0,1-6.2,4.27,23.42,23.42,0,0,1-6.29,1.92,76,76,0,0,1-15.41-6.7,18.54,18.54,0,0,0-6.49-2.65,18.05,18.05,0,0,0-3.57-.32l-.11.08a9,9,0,0,0-2.31-2,10.63,10.63,0,0,0-1.89-.84c-2.51-1-5.25-5.53-4.11-10.15a9.48,9.48,0,0,1,7.92-7l.11,0c-.16-.63-.27-1.21-.35-1.69l.25,0c.35.84,2.46,5.74,6.16,6.16s6.58-3.78,8.8-7c1.88-2.76,12.15-17.86,5.28-30.8-.73-1.38-4-7.46-10.78-10a18,18,0,0,0-4.87-1l-.55.06A19,19,0,0,0,246,221.6a18,18,0,0,0-3.19-4.95l2.1-.13a35,35,0,0,1,15.84-1.76,36.13,36.13,0,0,1,4.41.84c15.6,4.06,26.76,18.47,30.8,31.72.89,2.92,6.11,20.08-2.83,32.26a24.1,24.1,0,0,1-2.81,3.19Zm-48.06.18c.54-1,.37-1.89-.05-2.12s-1.83.49-1.75,1.2C240.06,282.39,240.81,282.91,241.81,282.81Zm0-4a1.68,1.68,0,0,0-1.14-2.12,1.7,1.7,0,0,0-2,1.42,1.8,1.8,0,0,0,1,1.84A1.73,1.73,0,0,0,241.77,278.81Z"/><path class="cls-2" d="M283.12,422.74l.06.11c4.17,7.88.79,15.7.34,16.69a28,28,0,0,0-5.33-6.28c-4.68-4.07-10.24-5.84-15.09-4.61a14.13,14.13,0,0,0-8.18,6.13c-4.6,7.82,1.58,17.17,2.39,18.39,1.75,2.65,4.95,7.49,10.55,7.83,5.19.32,9-3.43,9.8-4.35l.63.24c-2.94,7.89-6.68,10.82-9.75,11.94s-5.69.56-8.85,2.72a14.09,14.09,0,0,0-5.11,7.16l-.23.13q-7.51-13.07-15.45-26.75a130.75,130.75,0,0,0,2-43.11l.72-.09a19.53,19.53,0,0,1,5.1-7.83,19,19,0,0,1,12.79-5.1v-.42c1-.74,10.34-7.36,21.05-3.71a21.41,21.41,0,0,1,10.33,7.68,20.84,20.84,0,0,1,2.62,4.89c3.41,9,.16,18.21-.58,18.23-.42,0,0-4.58-1.84-8.57a9.88,9.88,0,0,0-2.76-3.62,12,12,0,0,0-7.87-2.26l0,0a13.59,13.59,0,0,1,3.8,10.41,15.8,15.8,0,0,1-.71,3.89Z"/><path class="cls-4" d="M291.11,414.05l-1.28.46a28.58,28.58,0,0,0-4.5,4.17l-1.09-.05a13.59,13.59,0,0,0-3.8-10.41l0,0a12,12,0,0,1,7.87,2.26A9.88,9.88,0,0,1,291.11,414.05Z"/><path class="cls-4" d="M277.66,456.65c-.85.92-4.61,4.66-9.8,4.35-5.61-.34-8.8-5.18-10.55-7.83-.8-1.21-7-10.57-2.39-18.39a14.13,14.13,0,0,1,8.18-6.13c4.86-1.22,10.41.55,15.09,4.61l-.13.15a26.81,26.81,0,0,0,.84,14.5,26.47,26.47,0,0,0,6.1,9.63l-.1.54c-2.37-.46-4.53-1-6.49-1.5,0,.11-.08.21-.12.32Z"/><path class="cls-2" d="M270.67,159.11c1.19-.59,3.73,1.08,3.52,2.64a2.75,2.75,0,0,1-3.52,1.76C269.3,162.74,269.49,159.7,270.67,159.11Z"/><path class="cls-2" d="M268,166.15c2.36.81,3.31,4.44,1.76,6.16a3.91,3.91,0,0,1-5.28,0,3.77,3.77,0,0,1-.88-4.4A3.72,3.72,0,0,1,268,166.15Z"/><path class="cls-2" d="M250.43,134.46c10.54,7.53,17.95,20.95,15,24.64-1.7,2.1-7.21,1.56-8.8-.88-1.43-2.21,1.39-4.19.88-7.92-.85-6.28-10.23-10.65-17.6-14.08a43.44,43.44,0,0,1-5.28-2.64c-5-3.06-5.9-5.47-8.8-7-2.31-1.26-6.07-2.09-12.32,0l-.14.26c-8.8-4.86-21.14-1.82-30.39,4.22l-2.19-1.41a68.44,68.44,0,0,1,8.08-5.7,37.26,37.26,0,0,1,12.36-4.2,43.43,43.43,0,0,1,12.29-.2c3.11.39,8.56,2.61,19.36,7C243,130.73,248.13,132.82,250.43,134.46Z"/><path class="cls-4" d="M264.49,213.71a14.72,14.72,0,0,1,.71,1.89,36.13,36.13,0,0,0-4.41-.84,35,35,0,0,0-15.84,1.76l-2.1.13c-4-4.44-10.28-7.28-17.19-7.61l-.18.17c-1.14-1.27-2.48-2.69-4-4.22-3-2.93-4.55-4.42-6.94-5.76a22.06,22.06,0,0,0-7.38-2.61,22.35,22.35,0,0,0-4.71-.18v-.24c-.39-.21-.77-.44-1.18-.69l0-.07a27.27,27.27,0,0,1-7.42-7.11l.26-.18a86.61,86.61,0,0,1,12.37-1.73c12-.7,18.39,2.4,22,6.13,5,5.23,3.68,10.75,9.68,14.08,8.21,4.55,17.42-2.05,23.76,3.52a9.17,9.17,0,0,1,.66.64l.26.29a10.41,10.41,0,0,1,1.51,2.27Z"/><path class="cls-4" d="M264.49,213.71l-.18-.35C264.38,213.48,264.43,213.59,264.49,213.71Z"/><path class="cls-4" d="M230.46,268.06l-.17.07a5.13,5.13,0,0,1-1.61-.77,6.43,6.43,0,0,1-1.84-2.42c-.81-1.81-1-5.35-.17-9.68l.11-.52a12.29,12.29,0,0,0,2.52.3c9.64.15,15.07-12.31,15.84-14.08a30.66,30.66,0,0,0,2.29-13.57l.55-.06a18,18,0,0,1,4.87,1c6.83,2.5,10.05,8.58,10.78,10,6.87,12.95-3.4,28-5.28,30.8-2.22,3.27-5.15,7.45-8.8,7s-5.81-5.32-6.16-6.16l-.25,0,0-.16-.09-.15a9.64,9.64,0,0,1-2.88,1.14c-.62.13-6.23,1.74-8.85-1.39A5,5,0,0,1,230.46,268.06Z"/><path class="cls-2" d="M262.8,211.09l-.26-.29Z"/><path class="cls-4" d="M222.22,232.57l-2.55-.41c4.95-.4,11.1-7.16,10.52-14.08a12.7,12.7,0,0,0-3.45-7.42q-.58-.69-1.27-1.45l.18-.17c6.91.33,13.18,3.17,17.19,7.61A18,18,0,0,1,246,221.6a19,19,0,0,1,1.41,5.79A30.66,30.66,0,0,1,245.15,241c-.77,1.77-6.2,14.23-15.84,14.08a12.29,12.29,0,0,1-2.52-.3c-5.1-1.09-9.78-5-9.8-8.5,0-2.66,2.68-3.89,4.4-9.68A24.63,24.63,0,0,0,222.22,232.57Z"/><path class="cls-2" d="M241.75,280.69c.42.23.59,1.17.05,2.12-1,.11-1.74-.42-1.8-.92C239.92,281.18,241.19,280.36,241.75,280.69Z"/><path class="cls-2" d="M240.64,276.69a1.68,1.68,0,0,1,1.14,2.12,1.73,1.73,0,0,1-2.12,1.14,1.8,1.8,0,0,1-1-1.84A1.7,1.7,0,0,1,240.64,276.69Z"/><path class="cls-4" d="M169.16,281.58c.33.8.69,1.65,1.06,2.53,1.31,3,2.93,6.57,4.95,10.78,2.79,5.84,4.23,8.85,6.54,12.9a110.67,110.67,0,0,0,10.84,16.45c7.38,9,14.53,13.73,18.14,16.45,19,14.35,25,41.68,28.19,56.33.9,4.11,1.57,8.11,2,12a130.75,130.75,0,0,1-2,43.11c-23.68-40.82-50.16-85.68-79.26-133.77-7.67-12.67-14.85-24.46-21.56-35.48l2.27-1a28.27,28.27,0,0,1-2.13-5.28c-3.51-12.26,2.5-23.61,4.4-27.28a41,41,0,0,1,2.64-4.4l.14-.55a12,12,0,0,0,1.51.67,12.4,12.4,0,0,0,3.79.73l.18-.12a15.83,15.83,0,0,0,3.73,4.37c.47.33,1,.63,1,.63a21.24,21.24,0,0,0,2.86,1.31c3,1.19,6.89,2.73,11.44,1.76l.08,0,.09.42a25.84,25.84,0,0,0-4.87,12.16C165,268.37,164.93,271.33,169.16,281.58Z"/><path class="cls-5" d="M240.73,320.14a4.74,4.74,0,0,0-2.24,6.11l0,.13a73.69,73.69,0,0,1-15.31-5.33l-.26-.07.05-.19a12,12,0,0,1,1.15-2.65l.38.21a24,24,0,0,0,6.94,1.1c1.57,0,2.67-.16,4.73,0A26.69,26.69,0,0,1,240.73,320.14Z"/><path class="cls-2" d="M233.41,273.72c.55.57.25,1.62.14,2-.05.2-.61,2.09-2,2.13a2.26,2.26,0,0,1-2-1.57,3,3,0,0,1,.84-2.12C231.27,273.36,232.77,273,233.41,273.72Z"/><path class="cls-2" d="M223.26,148.39a1.64,1.64,0,0,1-.16,2.05,1.84,1.84,0,0,1-1.43.53c-1-1-1.24-2.16-.84-2.65a1.52,1.52,0,0,1,1.06-.38A1.69,1.69,0,0,1,223.26,148.39Z"/><path class="cls-2" d="M221.66,77.8c.48.7-.06,1.8-.16,2-.57,1.16-2.1,2.32-3.22,1.77a2.49,2.49,0,0,1-.69-3.3C218.47,76.81,221,76.82,221.66,77.8Z"/><path class="cls-5" d="M213.47,167c6.22,3.38,8.31,9.75,8.8,11.44-4.2-3.71-10-3.79-13.2-.88s-2.7,7.38-2.64,7.92l0,.92a86.61,86.61,0,0,0-12.37,1.73l-.26.18a22.79,22.79,0,0,1-4.15-16.91C196.64,164.8,206.32,163.15,213.47,167Z"/><path class="cls-2" d="M214.83,71.51a3.67,3.67,0,0,1-2.38,3.61,3.74,3.74,0,0,1-4.76-2.53,3.46,3.46,0,0,1-.05-1.47.18.18,0,0,1,0-.08,3.75,3.75,0,0,1,7.14.11v0C214.81,71.28,214.82,71.39,214.83,71.51Z"/><path class="cls-2" d="M214.39,232.33a1.54,1.54,0,0,1-.93,1.51,2.35,2.35,0,0,1-1.33-1.3c-.17-.54-.09-1.35.4-1.51A1.75,1.75,0,0,1,214.39,232.33Z"/><path class="cls-2" d="M210.84,68a3.74,3.74,0,0,1,4,3.1,3.75,3.75,0,0,0-7.14-.11v0A3.71,3.71,0,0,1,210.84,68Z"/><path class="cls-2" d="M211,79.95a2.68,2.68,0,0,1-2.07,4.22,2.38,2.38,0,0,1-1.38-.54c-1-.71-1.74-2.23-1.23-3.3C207,78.88,209.87,78.55,211,79.95Z"/><path class="cls-4" d="M211,223.23l-.16.12a28.92,28.92,0,0,0-12.32,12.32c-4,8.11-2.45,15.93-.88,23.76a59,59,0,0,0,7.08,18.25l-.19.11a37.79,37.79,0,0,1-6-5.17c-1.58-1.69-11.74-12.38-10.56-26.4,1.16-13.82,12.35-26.83,19.36-25.52A6,6,0,0,1,211,223.23Z"/><path class="cls-2" d="M209.33,228.46a1.58,1.58,0,0,1-.1,3.12,1.64,1.64,0,0,1-1.73-1.39A1.83,1.83,0,0,1,209.33,228.46Z"/><path class="cls-3" d="M210.68,297.92a5.42,5.42,0,0,0-1.53,9.74v.06c-1.29-.29-2.22-.47-2.69-.56a62.92,62.92,0,0,1-9.41-2.8l.06-.16a8.18,8.18,0,0,1-3-5.52c0-.18,0-.36,0-.55h.17a14.92,14.92,0,0,0,6.29.69c2.12-.24,3.27-.88,5.91-1.07A19.06,19.06,0,0,1,210.68,297.92Z"/><path class="cls-3" d="M197.62,138a26.46,26.46,0,0,1,14.08-.88c-9.85,3.19-15.79,10.38-15,15.84A8.46,8.46,0,0,0,199,157.3l-.47,0c-1.72,1.32-7.44,6.06-8.8,14.08a22.79,22.79,0,0,0,4.15,16.91,27.27,27.27,0,0,0,7.42,7.11l0,.07c-9.18-5.45-22.24-16.89-22.08-31.13C179.26,154.19,186.23,142,197.62,138Z"/><path class="cls-2" d="M193,30.85c2.69,3.14,10.54,13.31,9.94,27,0,.23,0,.53-.05.89,0,.16,0,.33,0,.5s-.05.67-.1,1.06c0,.19-.05.4-.08.62,0,.39-.11.81-.18,1.25l-.16.86a.37.37,0,0,1,0,.1c0,.25-.1.5-.15.76s-.09.4-.14.61-.1.41-.15.62q-.17.7-.4,1.43c-.12.4-.25.79-.39,1.19-.08.23-.16.45-.25.68-.16.43-.33.87-.52,1.31a.31.31,0,0,0,0,.08l-.2.43A33.73,33.73,0,0,0,202.85,58c.61-13.73-7.24-23.9-9.94-27C184.22,20.8,173.14,17.81,165,15.73c-3.53-.91-19.15-4.64-40.59.45-10,2.38-39.39,9.34-56.92,34.49,17.51-25.22,46.92-32.2,57-34.58,21.44-5.09,37.06-1.36,40.59-.45C173.19,17.72,184.27,20.71,193,30.85Z"/><path class="cls-2" d="M202.85,58.78c0,.16,0,.33,0,.5C202.83,59.1,202.84,58.94,202.85,58.78Z"/><path class="cls-2" d="M202.64,61c0-.21.05-.42.08-.62C202.69,60.53,202.68,60.74,202.64,61Z"/><path class="cls-2" d="M202.31,63.07l.16-.86C202.42,62.48,202.37,62.77,202.31,63.07Z"/><path class="cls-2" d="M202.14,63.92c.05-.26.11-.51.15-.76C202.24,63.41,202.19,63.66,202.14,63.92Z"/><path class="cls-2" d="M180.74,129.6l2.19,1.41a37.9,37.9,0,0,0-17.47,32.49h-.4a10.25,10.25,0,0,1-2.64-2.64c-2.7-4-.67-7.79-1.76-13.2a20.69,20.69,0,0,0-5.28-9.68,23.91,23.91,0,0,0-12.32-7.92c-.34-.08-.68-.16-1-.22l.13-.66a25.07,25.07,0,0,1,6.29-5,16.87,16.87,0,0,1,6-2c7.76-1,10.34,4.57,18.48,4.4,8.65-.18,10.89-8.7,20.24-8.8a18.4,18.4,0,0,1,7.92,1.76l0,.2a37.26,37.26,0,0,0-12.36,4.2A68.44,68.44,0,0,0,180.74,129.6Z"/><path class="cls-2" d="M200,70.49c-.11.26-.24.5-.36.76l0,0Z"/><path class="cls-3" d="M197.1,304.2l-.06.16a168,168,0,0,1-20.76-9.74l-1.1.27c-2-4.22-3.63-7.77-4.95-10.78l.13-.06a57.73,57.73,0,0,0,7.06,2.46c1,.28,2.4.62,4.07,1s3.59.63,5.79.85c4.18.4,4.94-.06,8.44.62a31,31,0,0,1,4.66,1.26c-3.79,1.35-6.25,4.59-6.29,7.94,0,.18,0,.36,0,.55A8.18,8.18,0,0,0,197.1,304.2Z"/><path class="cls-2" d="M196,76.57l-.53.57Z"/><path class="cls-2" d="M195,77.56l.35-.36A4.52,4.52,0,0,1,195,77.56Z"/><path class="cls-2" d="M194.23,78.31l.3-.27Z"/><path class="cls-2" d="M192.84,79.44l.32-.24Z"/><path class="cls-2" d="M191.75,80.16l.53-.33C192.11,79.94,191.94,80.05,191.75,80.16Z"/><path class="cls-5" d="M186.12,280.5a5,5,0,0,0-4.52,6.36l-.11.61c-1.66-.34-3-.69-4.07-1a57.73,57.73,0,0,1-7.06-2.46l-.13.06c-.38-.89-.74-1.73-1.06-2.53a14.76,14.76,0,0,0,8.21-.77l.53-.23a10.2,10.2,0,0,1,4.23-1.22A7.37,7.37,0,0,1,186.12,280.5Z"/><path class="cls-2" d="M177.32,279.82l.58.75-.53.23a14.76,14.76,0,0,1-8.21.77c-4.23-10.24-4.2-13.21-4-15.29a25.84,25.84,0,0,1,4.87-12.16l-.09-.42a14.39,14.39,0,0,0,2.17-.62l.05.14.46.18-.11.31c-.07,1.65-.08,3.41,0,5.28a58.74,58.74,0,0,0,4.78,20.82Z"/><path class="cls-4" d="M167.3,175.67a39.31,39.31,0,0,0,8.32,14.24,122.25,122.25,0,0,1-39.8-25.32l.19-.2a78.91,78.91,0,0,1-10.61-23.69l.92-.07c1.53-1,7.88-4.68,15-2.64,8,2.31,11.54,10.47,12.32,12.32,3.79,8.87-.11,14.45,4.4,20.24a15.91,15.91,0,0,0,8.8,5.28Z"/><path class="cls-5" d="M167.3,175.67l-.48.16a15.91,15.91,0,0,1-8.8-5.28c-4.52-5.79-.61-11.37-4.4-20.24-.78-1.85-4.28-10-12.32-12.32-7.09-2-13.43,1.68-15,2.64l-.92.07a70.93,70.93,0,0,1-1.43-7l.59-.09c1.38-.92,8.55-5.48,17.47-3.74.33.06.67.14,1,.22A23.91,23.91,0,0,1,155.38,138a20.69,20.69,0,0,1,5.28,9.68c1.09,5.41-.94,9.18,1.76,13.2a10.25,10.25,0,0,0,2.64,2.64h.4a39.07,39.07,0,0,0,1.36,10.56C167,174.61,167.13,175.15,167.3,175.67Z"/><path class="cls-2" d="M158.42.59c1.64.21,2.64,2.53,2.3,4.3,0,.18-.39,1.87-1.68,2.31-1.53.51-3.68-.93-3.92-2.84S156.77.38,158.42.59Z"/><path class="cls-3" d="M155.94,82.9l-.56.51A28,28,0,0,0,143.93,97.5c-4.77,13.5,3.59,25.3,4.4,26.4l.13.24a25.07,25.07,0,0,0-6.29,5l-.13.66c-8.92-1.74-16.09,2.83-17.47,3.74l-.59.09c-1.9-12.77-.06-25.38,5.87-36.17A55.74,55.74,0,0,1,151,76.38a17.27,17.27,0,0,0,3.54,5.27A14.59,14.59,0,0,0,155.94,82.9Z"/><path class="cls-2" d="M151.94,1.8a5,5,0,0,1,0,6.07c-2.05,2.76-7.1,2.77-8.68.44s.29-6.78,3.48-7.82A5,5,0,0,1,151.94,1.8Z"/><path class="cls-5" d="M151.13,63.35c.58,2.05-.46,3.87-.84,4.84-1,2.41-.52,5.44.68,8.19A55.74,55.74,0,0,0,129.85,97.5c-5.93,10.79-7.77,23.4-5.87,36.17a70.93,70.93,0,0,0,1.43,7A78.91,78.91,0,0,0,136,164.39l-.19.2a100.34,100.34,0,0,1-18.29-24c-5.15-9.44-15.7-28.8-9.68-50.17.07-.24.17-.59.31-1,.64-2.15,6.13-19.27,21.7-26.24,8.19-3.67,16.28-2,20.64-.88l.12-.07A4.42,4.42,0,0,1,151.13,63.35Z"/><path class="cls-3" d="M150.56,245.17l.32.48-.18.12a12.4,12.4,0,0,1-3.79-.73,12,12,0,0,1-1.51-.67,10.18,10.18,0,0,0-2.78-1.21,7,7,0,0,0-1.75-.2,7.79,7.79,0,0,0-1.77.2,3.79,3.79,0,0,0-.55.2l-.82-2c.23-.37,1.91-3,4.66-3.13,2-.08,3.41,1.18,4.59,2.2C148,241.27,148.85,242.57,150.56,245.17Z"/><path class="cls-4" d="M145.4,244.37l-.14.55a41,41,0,0,0-2.64,4.4c-1.9,3.67-7.91,15-4.4,27.28a28.27,28.27,0,0,0,2.13,5.28l-2.27,1-12-19.73a28.12,28.12,0,0,1,.89-4.62c2.68-9.47,9.36-14.09,11.63-15.13a3.79,3.79,0,0,1,.55-.2,7.79,7.79,0,0,1,1.77-.2,7,7,0,0,1,1.75.2A10.18,10.18,0,0,1,145.4,244.37Z"/><path class="cls-2" d="M97.74,189.41c3.63,1.9,6.55,4.29,6.16,5.28-.18.45-1,.46-2.08.32-2.69-.33-7.26-1.52-9.36.56-3.1,3.05.16,11.42,2.64,15.84l-.16.1c-5.4-9.21-10.22-17.66-14.5-25.55C85,186.79,89.84,185.27,97.74,189.41Z"/><path class="cls-5" d="M101.82,195l-.08.67a16.1,16.1,0,0,0-4.18,5.4,17.64,17.64,0,0,0-.53,13l-.16.11a31.43,31.43,0,0,1-1.78-2.79c-2.48-4.42-5.74-12.79-2.64-15.84C94.56,193.48,99.13,194.68,101.82,195Z"/><path class="cls-2" d="M61.7,60.68c-.18.38-.36.76-.52,1.14.07-.18.15-.34.23-.52Z"/><path class="cls-5" d="M60.76,62.74c-.26.59-.51,1.18-.75,1.77C60.25,63.92,60.5,63.33,60.76,62.74Z"/><path class="cls-5" d="M59,67q-.62,1.72-1.14,3.41Q58.43,68.75,59,67Z"/><path class="cls-5" d="M57.91,70.44l-.26.87,0-.1C57.75,71,57.82,70.7,57.91,70.44Z"/><path class="cls-5" d="M56.9,74.08c-.07.27-.14.55-.2.83C56.76,74.64,56.83,74.36,56.9,74.08Z"/><path class="cls-5" d="M56.7,74.91c-.07.29-.13.57-.2.85C56.56,75.48,56.63,75.2,56.7,74.91Z"/><path class="cls-5" d="M55.79,79.29l-.16.9Q55.7,79.74,55.79,79.29Z"/><path class="cls-5" d="M55.29,82.5l-.13,1Q55.21,83,55.29,82.5Z"/><path class="cls-5" d="M55,84.74c-.05.55-.11,1.09-.15,1.63C54.91,85.83,55,85.29,55,84.74Z"/><path class="cls-2" d="M54.72,88.3c0,.43-.05.87-.07,1.3C54.67,89.17,54.7,88.74,54.72,88.3Z"/><path class="cls-2" d="M54.65,89.61c0,.33,0,.65,0,1C54.63,90.26,54.64,89.94,54.65,89.61Z"/><path class="cls-2" d="M54.6,90.94c0,.21,0,.4,0,.61C54.59,91.34,54.59,91.14,54.6,90.94Z"/><path class="cls-6" d="M199.54,71.34c-.08.17-.17.33-.26.5"/><path class="cls-6" d="M61.7,60.68l.26-.54c.18-.39.38-.77.57-1.15s.51-1,.77-1.49"/><path class="cls-7" d="M151.94,1.8a5,5,0,0,0-5.2-1.3c-3.19,1-5,5.52-3.48,7.82s6.63,2.32,8.68-.44A5,5,0,0,0,151.94,1.8Z"/><path class="cls-7" d="M158.42.59c-1.65-.21-3.56,1.76-3.3,3.76s2.39,3.35,3.92,2.84c1.29-.44,1.65-2.12,1.68-2.31C161.06,3.13,160.06.8,158.42.59Z"/><path class="cls-7" d="M207.64,71.11a.61.61,0,0,0,0,.11"/><path class="cls-7" d="M214.81,71.21l0,0v0a3.75,3.75,0,0,0-7.14-.11"/><path class="cls-7" d="M207.66,71a.18.18,0,0,0,0,.08"/><path class="cls-7" d="M57.63,71.31a70.76,70.76,0,0,1,3.78-10c.17-.38.35-.77.55-1.15s.34-.71.52-1.06c.27-.53.55-1.06.83-1.58a69.64,69.64,0,0,1,4.2-6.83C85,25.52,114.37,18.56,124.41,16.18c21.44-5.09,37.06-1.36,40.59-.45,8.13,2.08,19.21,5.07,27.91,15.21,2.69,3.14,10.54,13.31,9.94,27a33.73,33.73,0,0,1-2.79,12.29l-.11.23-.38.78a.22.22,0,0,1,0,.06"/></g></g><polyline class="cls-8" points="15 86.19 332.54 636.19 650.09 86.19"/></g></g></svg>